<?xml version="1.0" encoding="UTF-8" standalone="no"?>
<svg
   width="1274.8955"
   height="317.99686"
   viewBox="0 0 1274.8955 317.99686"
   fill="none"
   stroke="currentColor"
   stroke-width="2"
   stroke-linecap="round"
   stroke-linejoin="round"
   version="1.1"
   id="svg3"
   sodipodi:docname="AutoVeda.svg"
   inkscape:version="1.4.2 (f4327f4, 2025-05-13)"
   xml:space="preserve"
   xmlns:inkscape="http://www.inkscape.org/namespaces/inkscape"
   xmlns:sodipodi="http://sodipodi.sourceforge.net/DTD/sodipodi-0.dtd"
   xmlns="http://www.w3.org/2000/svg"
   xmlns:svg="http://www.w3.org/2000/svg"><sodipodi:namedview
   id="namedview1"
   pagecolor="#ffffff"
   bordercolor="#111111"
   borderopacity="1"
   inkscape:showpageshadow="0"
   inkscape:pageopacity="0"
   inkscape:pagecheckerboard="1"
   inkscape:deskcolor="#d1d1d1"
   showgrid="false"
   inkscape:zoom="1"
   inkscape:cx="599.5"
   inkscape:cy="163.5"
   inkscape:window-width="1920"
   inkscape:window-height="1009"
   inkscape:window-x="-8"
   inkscape:window-y="-8"
   inkscape:window-maximized="1"
   inkscape:current-layer="layer1" />
  <defs
   id="defs3">
    <clipPath
   id="left-slice">
      <rect
   x="0"
   y="0"
   width="103.15"
   height="297"
   id="rect1" />
    </clipPath>
    <clipPath
   id="left-slice-8">
      <rect
   x="0"
   y="0"
   width="103.15"
   height="297"
   id="rect1-5" />
    </clipPath>
    <clipPath
   id="right-slice">
      <rect
   x="103.15"
   y="0"
   width="106.85"
   height="297"
   id="rect2" />
    </clipPath>
  </defs>

  <g
   inkscape:groupmode="layer"
   id="layer1"
   inkscape:label="AutoVeda Logo Design"
   transform="translate(710.49524,431.97266)">
    
    <g
   id="AUTOVEDA_MASTER_LOGO">
      <g
   id="g5">
        <g
   id="g6">
          <g
   id="orange_brand"
   fill="#f67a1f"
   transform="translate(-75.88231,4.0227363)">
            <path
   id="path31"
   d="m -444.64074,-376.8807 -3.07673,-2.5889 v -3.97684 -3.97685 l 1.02965,-1.92391 1.02964,-1.92391 2.9207,-1.51035 2.92069,-1.51035 h 1.64853 1.64853 l 3.52416,1.67232 3.52416,1.67232 1.44973,3.46971 1.44974,3.4697 -0.61321,2.44321 -0.61321,2.4432 -2.60557,2.41477 -2.60558,2.41477 h -4.27726 -4.27725 z" />
            <path
   id="path30"
   d="m -384.02056,-268.54181 -1.68535,-1.25 -0.25578,-32.49205 -0.25578,-32.49205 -20.5,-11.67447 -20.5,-11.67446 -3.20078,-0.0835 -3.20078,-0.0835 -5.29922,1.12161 -5.29922,1.12162 -2.83351,1.44725 -2.8335,1.44725 -16.1665,-9.20386 -16.16649,-9.20386 -3.76553,-2.38947 -3.76553,-2.38947 0.26553,-28.20187 0.26553,-28.20187 2.50313,-0.87988 2.50313,-0.87989 33.99687,19.43992 33.99687,19.43993 6,3.30933 6,3.30933 20,11.53135 20,11.53135 7.64118,4.32395 7.64117,4.32394 0.65643,2.61545 0.65644,2.61544 -0.63536,30.63623 -0.63536,30.63622 -3.61758,3.75245 -3.61759,3.75244 -3.79466,-3.70539 -3.79467,-3.70539 v -28.72367 -28.72366 l -5.37172,-3.07339 -5.37173,-3.07339 -2.37827,-0.0411 -2.37828,-0.0411 -19.47897,-11.20888 -19.47897,-11.20888 -1.6468,-6.31561 -1.6468,-6.31562 -2.87423,-3.06048 -2.87423,-3.06049 -4,-1.85194 -4,-1.85194 h -3.5 -3.5 l -4.04137,1.83574 -4.04137,1.83574 -2.70863,3.21903 -2.70863,3.21902 v 4.19114 4.19114 l 2.38583,3.51107 2.38584,3.51107 5.16834,2.81296 5.16835,2.81297 5.69582,-0.63812 5.69582,-0.63812 24,13.60527 24,13.60527 2.20617,1.43528 2.20618,1.43529 0.0553,31.75567 0.0554,31.75566 0.0906,2.30838 0.0906,2.30839 -1.75714,1.94161 -1.75714,1.94162 h -1.15389 -1.15388 z" />
            <path
   id="path29"
   d="m -353.2889,-255.86324 1.57143,-1.57143 v -1.27358 -1.27358 l -1.92833,-1.74512 -1.92834,-1.74512 -2.06934,0.65678 -2.06934,0.65678 -0.61399,2.44634 -0.61399,2.44633 1.23411,1.48702 1.23411,1.48701 h 1.80613 1.80612 z" />
            <path
   id="path28"
   d="m -361.9549,-248.80304 -2.73743,-1.53947 -1.51257,-2.92499 -1.51257,-2.92499 v -2.64537 -2.64536 l 1.70606,-2.88814 1.70607,-2.88813 3.39116,-1.60921 3.39116,-1.60921 3.34249,0.62705 3.3425,0.62706 2.56028,3.04272 2.56028,3.04272 v 4.4075 4.4075 l -2.75,3.07752 -2.75,3.07752 -4,0.45238 -4,0.45237 z" />
            <path
   id="path26"
   d="m 552.00571,-227.06691 -6.72318,-6.77509 v -14.00172 -14.00173 l 6.7751,-6.72318 6.77509,-6.72318 h 30.22491 30.2249 l 0.11381,-2.75 0.11381,-2.75 0.13619,-5.74986 0.13619,-5.74985 -37.25,-1.5e-4 -37.25,-1.4e-4 v -9 -9 h 39.77503 39.77503 l 7.22497,7.27352 7.22497,7.27351 v 30.50151 30.50152 l -7.27351,7.22497 -7.27352,7.22497 h -33.0033 -33.00331 z m 67.57563,-20.40643 0.59484,-9.18153 -0.50584,-0.81847 -0.50584,-0.81847 h -27.44099 -27.44098 v 10 10 h 27.35198 27.35198 z" />
            <path
   id="path24"
   d="m 438.04501,-227.04181 -6.68387,-6.75 -0.14274,-31.37067 -0.14273,-31.37068 6.81276,-6.86537 6.81277,-6.86537 31.04067,-0.26396 31.04066,-0.26395 0.29569,-6.75 0.29569,-6.75 h 9.45431 9.45431 v 52 52 h -40.77682 -40.77682 z m 69.23752,-38.25 v -27 h -28.5 -28.5 v 27 27 h 28.5 28.5 z" />
            <path
   id="path23"
   d="m 327.00571,-227.06691 -6.72318,-6.77509 v -31.50172 -31.50173 l 6.7751,-6.72318 6.77509,-6.72318 h 39.26384 39.26384 l -0.28894,8.75 -0.28893,8.75 -36.25,0.26248 -36.25,0.26247 v 8.48753 8.48752 l 1.25,0.1154 1.25,0.11539 35,0.13461 35,0.1346 v 9 9 l -36.25,0.26248 -36.25,0.26247 v 8.98753 8.98752 h 36.5 36.5 v 9 9 h -39.27682 -39.27682 z" />
            <path
   id="path22"
   d="m 234.67381,-224.04181 -1.50666,-3.75 -8.08949,-19.5 -8.08949,-19.5 -13.49388,-31.5 -13.49389,-31.5 -1.38614,-3.283 -1.38615,-3.28301 11.14256,0.28301 11.14255,0.283 5.73575,13.5 5.73575,13.5 5.30424,12.5 5.30424,12.5 6.43336,15.5 6.43337,15.5 2.55619,6.75 2.55619,6.75 h 0.70509 0.70509 l 2.60427,-6.25 2.60427,-6.25 7.49065,-18 7.49066,-18 10.30546,-24 10.30546,-24 10.74963,-0.28383 10.74964,-0.28383 v 0.84033 0.84033 l -7.08806,16.4435 -7.08807,16.4435 -8.75071,20.5 -8.75072,20.5 -8.41122,20.23546 -8.41122,20.23546 -14.30102,0.0145 -14.30103,0.0145 z" />
            <path
   id="path15"
   d="m -407.53052,-221.79181 -2.17372,-2.5 h -0.913 -0.91299 l 0.57724,-2.20736 0.57724,-2.20737 2.32914,-3.43218 2.32914,-3.43218 v -1.36046 -1.36045 h 1 1 v 1.26481 1.26481 l 2,3.73157 2,3.73156 v 0.93429 0.93428 l -2.25,3.52701 -2.25,3.52702 -0.56966,0.0423 -0.56967,0.0423 z" />
            <path
   id="path12"
   d="m -408.59631,-190.99261 -2.25238,-1.82387 1.05925,-2.78603 1.05925,-2.78604 3.45853,-1.44506 3.45853,-1.44507 5.31566,-6.75656 5.31565,-6.75657 2.74637,-4.25 2.74636,-4.25 h 1.03547 1.03547 l 2.95034,1.52568 2.95034,1.52568 v 1.74265 1.74265 l -3.75,4.62361 -3.75,4.62362 -5.9739,7.71793 -5.97389,7.71793 -2.32021,0.88214 -2.3202,0.88215 -2.26913,0.56951 -2.26912,0.56951 z" />
            <path
   id="path11"
   d="m -434.54621,-146.9468 1.82874,-1.65498 v -1.64502 -1.64501 l -1.2,-1.2 -1.2,-1.2 h -2.1 -2.1 l -1.2,1.2 -1.2,1.2 v 2.25031 2.25031 l 1.75,1.01928 1.75,1.01928 0.92126,0.0304 0.92126,0.0304 z" />
            <path
   id="path10"
   d="m -440.21747,-138.99822 -2,-0.49325 -2.22098,-2.04722 -2.22098,-2.04722 -1.10657,-3.35295 -1.10657,-3.35295 1.14994,-3.48436 1.14994,-3.48436 2.56247,-2.01564 2.56247,-2.01564 4.11514,0.0153 4.11514,0.0153 1.44087,0.91166 1.44087,0.91167 3.05913,-1.58012 3.05913,-1.58011 13,-7.70127 13,-7.70127 15,-8.76209 15,-8.76208 3.75,-2.3977 3.75,-2.3977 -0.006,-13.23581 -0.006,-13.23581 -23.9207,-13.80893 -23.9207,-13.80893 -0.52889,-6.19107 -0.52888,-6.19107 0.0576,-24 0.0576,-24 -0.10196,-3.60209 -0.10197,-3.60208 -7.9328,-4.39792 -7.9328,-4.39791 -0.63916,-2.4608 -0.63916,-2.4608 1.76309,-1.2892 1.76309,-1.2892 h 1.49519 1.4952 l 9.81367,5.55655 9.81368,5.55656 v 33.44161 33.44161 l 4.52879,2.75183 4.52879,2.75184 19.97121,11.48573 19.97121,11.48572 v 18.55319 18.55319 l -32.75,19.08117 -32.75,19.08117 -4.15718,2.34875 -4.15719,2.34874 -0.57144,3.5736 -0.57144,3.5736 -2.77137,2.60217 -2.77138,2.60216 -3,0.49883 -3,0.49883 z" />
          </g>
          <g
   id="dark_gray_brand"
   fill="#3a464e"
   stroke="none"
   transform="translate(-75.88231,4.0227363)">
            <path
   id="path41"
   d="m -467.63987,-363.30397 -17.4224,-9.98374 -2.34311,-1.53527 -2.34312,-1.53527 0.26551,-28.19311 0.26552,-28.19312 2.5,-0.87725 2.5,-0.87726 36.2857,20.73455 36.28571,20.73456 -0.30846,0.30845 -0.30845,0.30846 -5.7305,0.23184 -5.7305,0.23184 -2.2604,-2.12353 -2.26039,-2.12353 -3.70424,-1.54773 -3.70423,-1.54773 -3.28212,0.022 -3.28212,0.022 -4.04137,1.83574 -4.04137,1.83574 -2.70863,3.21903 -2.70863,3.21902 v 4.19114 4.19114 l 2.38583,3.51107 2.38584,3.51107 5.19308,2.82643 5.19308,2.82643 5.34901,-0.66832 5.34901,-0.66831 3.10477,1.60554 3.10477,1.60554 -0.71855,1.20741 -0.71856,1.20741 -1.90861,2.62342 -1.90862,2.62343 -5.42232,0.63728 -5.42233,0.63729 -3.7332,1.35459 -3.7332,1.3546 -1.5,0.62048 -1.5,0.62049 z" />
            <path
   id="path39"
   d="m 86.185301,-226.95587 -6.902769,-6.66406 v -31.69863 -31.69863 l 7.074985,-6.63731 7.074985,-6.63731 33.175018,0.0338 33.17501,0.0339 7.25314,6.71614 7.25314,6.71615 -0.003,31.6601 -0.003,31.66011 -7.36305,6.58989 -7.36305,6.5899 H 126.32225 93.08807 Z m 69.097229,-38.33594 v -27 h -28.5 -28.499998 v 27 27 h 28.499998 28.5 z" />
            <path
   id="path38"
   d="m 3.2825317,-256.29181 v -36 h -18.4999997 -18.5 v -9 -9 h 47.538933 47.538933 l -0.288933,8.75 -0.288933,8.75 -18.75,0.27207 -18.75,0.27206 v 35.97794 35.97793 h -10 -10.0000003 z" />
            <path
   id="path37"
   d="m -140.8147,-226.95587 -6.90277,-6.66406 v -38.33594 -38.33594 h 9.5 9.5 v 36 36 h 28.5 28.500002 v -36 -36 h 9.5 9.5 v 38.27682 38.27682 l -6.775096,6.72318 -6.775097,6.72318 h -33.822139 -33.82213 z" />
            <path
   id="path16"
   d="m -284.42791,-270.54181 -0.10518,-50.25 7.63435,-7.75 7.63435,-7.75 h 43.33032 43.33032 l 7.69314,7.44732 7.69314,7.44733 v 50.30267 50.30268 l -10.22781,0.28474 -10.2278,0.28474 -0.2722,-18.78474 -0.27219,-18.78474 -34.5,-0.28846 -34.5,-0.28847 -3.25,0.58378 -3.25,0.58378 v 18.45468 18.45469 h -10.30263 -10.30264 z m 96.71044,-26.25 v -19.5 h -38 -38 v 19.5 19.5 h 38 38 z" />
          </g>
          <g
   id="light_gray_brand"
   fill="#606e77"
   transform="translate(-76.888196,5.3160186)">
            <path
   id="path32"
   d="m -487.49496,-121.84851 -2.22251,-1.55671 v -27.90603 -27.90604 l 5.75,-3.86669 5.75,-3.86669 18.5,-10.85758 18.5,-10.85759 5.56979,-3.15682 5.56979,-3.15683 5.43021,0.77084 5.43021,0.77083 1.66939,0.073 1.6694,0.073 -0.91226,3.30394 -0.91227,3.30394 -3.98194,9.31652 -3.98195,9.31651 3.47481,4.05955 3.47482,4.05954 -0.0119,1.07 -0.0119,1.07 -6.23813,3.5 -6.23814,3.5 -7.69891,0.53378 -7.69891,0.53377 -3.73639,3.02411 -3.73638,3.02411 -1.99992,2.67868 -1.99992,2.67868 -0.431,5.95847 -0.431,5.95847 2.44337,4.37167 2.44338,4.37167 -15.25426,8.68329 -15.25426,8.6833 h -0.35039 -0.3504 z" />
            <path
   id="path7"
   d="m -632.60704,-358.43227 v 78.51544 78.51738 c 50.96581,-30.42158 0.0983,0.0985 51.09985,-30.86572 l -0.043,-48.21653 -0.041,-48.21652 c -50.48075,-29.66873 -0.25696,-0.207 -51.01583,-29.73405 z" />
          </g>
          <g
   id="light_gray_brand-2"
   fill="#606e77"
   transform="translate(-76.528105,2.3183585)">
            <path
   id="path7-5"
   d="m -502.50586,-433.29102 c -43.39076,25.44465 -86.87625,50.72736 -130.21094,76.26758 l 50.99999,30.22081 c 27.12035,-15.69564 54.0424,-31.73041 81,-47.70313 v -29.39258 -29.39258 h -0.89453 z"
   fill="#3a464e" />
          </g>
          <g
   id="light_gray_brand-2-1"
   fill="#606e77"
   transform="matrix(1,0,0,-1,-172.03617,-525.37128)">
            <path
   id="path7-5-5"
   d="m -406.07696,-406.67384 c -43.39076,25.44465 -86.87625,50.72736 -130.21094,76.26758 l 50.99999,30.22081 c 27.12035,-15.69564 54.0424,-31.73041 81,-47.70313 v -29.39258 -29.39258 h -0.89453 z"
   fill="#3a464e" />
          </g>
          <g
   id="Inner_Hex_Donut"
   transform="matrix(3.7795276,0,0,3.7795276,-988.22018,-529.38363)">
            <path
   id="inner-left"
   clip-path="url(#left-slice-8)"
   fill="#606e77"
   fill-rule="evenodd"
   stroke="none"
   d="m 106.23021,89.920685 -3.70416,-1.865202 -2.03646,-1.207336 -2.036462,-1.207338 -3.652083,-2.7377 -3.652081,-2.737699 -0.325625,-1.255101 -0.325626,-1.255102 -0.0051,-8.228747 -0.0051,-8.228745 0.301234,-0.89938 0.301236,-0.899377 0.55866,-0.620961 0.558662,-0.620961 2.910417,-2.191782 2.910416,-2.191782 1.455209,-0.917998 1.455203,-0.917999 4.39017,-2.288528 4.39018,-2.28853 h 0.59552 0.59552 l 4.45346,2.236214 4.45347,2.236212 1.18588,0.740349 1.18588,0.74035 1.81038,1.512927 1.81037,1.512924 1.71693,1.266648 1.71692,1.26665 0.38896,0.7923 0.38897,0.7923 0.19755,3.96875 0.19756,3.96875 -0.14647,4.7625 -0.14646,4.7625 -0.24335,0.971402 -0.24335,0.971401 -1.36627,1.145265 -1.36627,1.145265 -3.00747,2.271255 -3.00747,2.271255 -5.0237,2.557391 -5.02369,2.557391 -0.45369,-0.01228 -0.45369,-0.01228 z m 8.67176,-6.072294 1.6268,-0.548026 1.20072,-0.68639 1.20072,-0.68639 1.37352,-1.151175 1.37351,-1.151176 1.18171,-1.778762 1.1817,-1.778765 0.61209,-1.719791 0.61209,-1.719792 0.008,-3.042708 0.008,-3.042708 -0.45487,-1.455208 -0.45487,-1.455209 -1.00034,-1.705469 -1.00033,-1.70547 -1.53825,-1.511779 -1.53824,-1.511776 -1.79344,-0.942427 -1.79345,-0.942428 -1.5631,-0.41493 -1.56311,-0.414927 -2.27916,0.0035 -2.27917,0.0035 -2.1072,0.665665 -2.10721,0.665665 -1.56684,1.012701 -1.56684,1.012698 -1.477711,1.632921 -1.477711,1.632921 -0.840705,1.724239 -0.840706,1.724239 -0.389565,1.652241 -0.389567,1.652244 v 1.5875 1.587499 l 0.399881,1.696455 0.399881,1.696456 0.804994,1.686716 0.804995,1.686716 1.635485,1.752753 1.635489,1.752754 1.32291,0.836356 1.32292,0.836356 1.45521,0.579307 1.45521,0.579308 1.19062,0.249526 1.19063,0.249523 2.19956,-0.123216 2.19956,-0.123214 z"
   transform="translate(0,-0.91248248)" />
            <path
   id="inner-right"
   clip-path="url(#right-slice)"
   fill="#3a464e"
   fill-rule="evenodd"
   stroke="none"
   d="m 106.23021,89.920685 -3.70416,-1.865202 -2.03646,-1.207336 -2.036462,-1.207338 -3.652083,-2.7377 -3.652081,-2.737699 -0.325625,-1.255101 -0.325626,-1.255102 -0.0051,-8.228747 -0.0051,-8.228745 0.301234,-0.89938 0.301236,-0.899377 0.55866,-0.620961 0.558662,-0.620961 2.910417,-2.191782 2.910416,-2.191782 1.455209,-0.917998 1.455203,-0.917999 4.39017,-2.288528 4.39018,-2.28853 h 0.59552 0.59552 l 4.45346,2.236214 4.45347,2.236212 1.18588,0.740349 1.18588,0.74035 1.81038,1.512927 1.81037,1.512924 1.71693,1.266648 1.71692,1.26665 0.38896,0.7923 0.38897,0.7923 0.19755,3.96875 0.19756,3.96875 -0.14647,4.7625 -0.14646,4.7625 -0.24335,0.971402 -0.24335,0.971401 -1.36627,1.145265 -1.36627,1.145265 -3.00747,2.271255 -3.00747,2.271255 -5.0237,2.557391 -5.02369,2.557391 -0.45369,-0.01228 -0.45369,-0.01228 z m 8.67176,-6.072294 1.6268,-0.548026 1.20072,-0.68639 1.20072,-0.68639 1.37352,-1.151175 1.37351,-1.151176 1.18171,-1.778762 1.1817,-1.778765 0.61209,-1.719791 0.61209,-1.719792 0.008,-3.042708 0.008,-3.042708 -0.45487,-1.455208 -0.45487,-1.455209 -1.00034,-1.705469 -1.00033,-1.70547 -1.53825,-1.511779 -1.53824,-1.511776 -1.79344,-0.942427 -1.79345,-0.942428 -1.5631,-0.41493 -1.56311,-0.414927 -2.27916,0.0035 -2.27917,0.0035 -2.1072,0.665665 -2.10721,0.665665 -1.56684,1.012701 -1.56684,1.012698 -1.477711,1.632921 -1.477711,1.632921 -0.840705,1.724239 -0.840706,1.724239 -0.389565,1.652241 -0.389567,1.652244 v 1.5875 1.587499 l 0.399881,1.696455 0.399881,1.696456 0.804994,1.686716 0.804995,1.686716 1.635485,1.752753 1.635489,1.752754 1.32291,0.836356 1.32292,0.836356 1.45521,0.579307 1.45521,0.579308 1.19062,0.249526 1.19063,0.249523 2.19956,-0.123216 2.19956,-0.123214 z"
   transform="translate(0,-0.91248248)" />
          </g>
        </g>
      </g>
    </g>
  </g>
</svg>
